# xmcd CD database file
#
# Track frame offsets:
#	150
#	13325
#	23754
#	37112
#	52619
#	66420
#	77362
#	89390
#	100931
#	112093
#	125425
#	138116
#	147604
#
# Disc length: 2096 seconds
#
# Revision: 0
# Processed by: cddbd v1.5.2PL0 Copyright (c) Steve Scherf et al.
# Submitted via: CDex 1.70beta2
#
DISCID=af082e0d
DTITLE=AA.VV - A Christmas Gift For You From Phil Spector
DYEAR=1963
DGENRE=Natale
TTITLE0=Darlene Love - White Christmas (Irving Berlin)
TTITLE1=The Ronettes - Frosty The Snowman (Steve Nelson-Walter Rollins)
TTITLE2=Bob B.Soxx and The Blue Jeans - The Bells Of St. Mary (Emmett Adams-D.Furber)
TTITLE3=The Crystals - Santa Claus Is Coming To Town (Fred Coots-H.Gillespie)
TTITLE4=The Ronettes - Sleigh Ride (Leroy Anderson-Mitchell Parish)
TTITLE5=Darlene Love - Marshmallow World (Carl Sigman-Peter DeRose)
TTITLE6=The Ronettes - I Saw Mommy Kissing Santa Claus (Tommie Connors)
TTITLE7=The Crystals - Rudolph The Red Nosed Reindeer (Johnny Marks)
TTITLE8=Darlene Love - Winter Wonderland (Felix Beranrd-Dick Smith)
TTITLE9=The Crystals - Parade Of The Wooden Soldiers (Leon Jessel)
TTITLE10=Darlene Love - Christmas (Baby Please Come Home) (Phil Spector-Ellie Greenwich-Jeff Barry)
TTITLE11=Bob B.Soxx and The Blue Jeans - Here Comes Santa Claus (Gene Autry-O.Halderman)
TTITLE12=Phil Spector And Artists - Silent Night (Arr.Phil Spector)
EXTD=YEAR: 1963
EXTT0=
EXTT1=
EXTT2=
EXTT3=
EXTT4=
EXTT5=
EXTT6=
EXTT7=
EXTT8=
EXTT9=
EXTT10=
EXTT11=
EXTT12=
PLAYORDER=
